<svg width="25" height="24" viewBox="0 0 25 24" fill="none" xmlns="http://www.w3.org/2000/svg">
<path fill-rule="evenodd" clip-rule="evenodd" d="M4.27661 12C4.27661 9.20237 4.27661 7.80355 4.77364 6.71522C5.32326 5.5117 6.28831 4.54665 7.49183 3.99702C8.58016 3.5 9.97898 3.5 12.7766 3.5C15.5742 3.5 16.9731 3.5 18.0614 3.99702C19.2649 4.54665 20.23 5.5117 20.7796 6.71522C21.2766 7.80355 21.2766 9.20237 21.2766 12C21.2766 14.7976 21.2766 16.1965 20.7796 17.2848C20.23 18.4883 19.2649 19.4533 18.0614 20.003C16.9731 20.5 15.5742 20.5 12.7766 20.5C9.97898 20.5 8.58016 20.5 7.49183 20.003C6.28831 19.4533 5.32326 18.4883 4.77364 17.2848C4.27661 16.1965 4.27661 14.7976 4.27661 12ZM12.7766 7.5C10.2915 7.5 8.27661 9.51487 8.27661 12C8.27661 14.4851 10.2915 16.5 12.7766 16.5C15.2617 16.5 17.2766 14.4851 17.2766 12C17.2766 9.51487 15.2617 7.5 12.7766 7.5ZM12.7766 14.8125C11.2264 14.8125 9.96411 13.5503 9.96411 12C9.96411 10.4486 11.2264 9.1875 12.7766 9.1875C14.3269 9.1875 15.5891 10.4486 15.5891 12C15.5891 13.5503 14.3269 14.8125 12.7766 14.8125ZM18.2137 7.1625C18.2137 7.49366 17.9453 7.76213 17.6141 7.76213C17.283 7.76213 17.0145 7.49366 17.0145 7.1625C17.0145 6.83134 17.283 6.56288 17.6141 6.56288C17.9453 6.56288 18.2137 6.83134 18.2137 7.1625Z" fill="white"/>
</svg>
